<?xml version="1.0" encoding="UTF-8" standalone="no"?>
<svg xmlns="http://www.w3.org/2000/svg" width="192" height="192" viewBox="0 0 50.8 50.8">
  <circle cx="25.4" cy="25.4" r="23.4" fill="#2196F3" />
  <path d="M25.4,8.467 L14.817,13.547 L14.817,23.707 C14.817,31.327 19.367,38.413 25.4,40.333 C31.433,38.413 35.983,31.327 35.983,23.707 L35.983,13.547 L25.4,8.467 Z" fill="#ffffff" />
  <path d="M25.4,34.925 C20.638,34.925 16.775,31.062 16.775,26.3 C16.775,21.538 20.638,17.675 25.4,17.675 C30.162,17.675 34.025,21.538 34.025,26.3 C34.025,31.062 30.162,34.925 25.4,34.925 Z M25.4,19.633 C21.721,19.633 18.733,22.621 18.733,26.3 C18.733,29.979 21.721,32.967 25.4,32.967 C29.079,32.967 32.067,29.979 32.067,26.3 C32.067,22.621 29.079,19.633 25.4,19.633 Z" fill="#2196F3" />
  <path d="M25.4,29.217 C23.442,29.217 21.833,27.608 21.833,25.65 C21.833,23.692 23.442,22.083 25.4,22.083 C27.358,22.083 28.967,23.692 28.967,25.65 C28.967,27.608 27.358,29.217 25.4,29.217 Z" fill="#2196F3" />
</svg>
